<?xml version="1.0" encoding="utf-8"?>
<!-- Generator: Adobe Illustrator 23.0.2, SVG Export Plug-In . SVG Version: 6.00 Build 0)  -->
<svg version="1.1" id="Layer_1" xmlns="http://www.w3.org/2000/svg" xmlns:xlink="http://www.w3.org/1999/xlink" x="0px" y="0px"
	 viewBox="0 0 511.2 510.9" style="enable-background:new 0 0 511.2 510.9;" xml:space="preserve">
<style type="text/css">
	.st0{fill:#868686;}
</style>
<path class="st0" d="M284.2,510.9c-18.7,0-37.3,0-56,0c-8.8-1.6-17.6-3.1-26.4-4.9C63.4,476.5-25.7,336.2,6.7,198.7
	C38.5,63.4,169.3-21.5,305.6,4.7c97.6,18.8,177.4,95.4,199.6,191.9c2.4,10.3,4,20.8,6,31.2c0,18.7,0,37.3,0,56
	c-0.7,4.2-1.5,8.4-2.2,12.7c-16.4,101.8-93.3,184.6-193.6,208.3C305.1,507.3,294.6,508.9,284.2,510.9z M256.2,53.5
	c-15.8,2.1-31.9,3.1-47.4,6.7c-63,14.7-108.9,51.2-135.9,110.3C55.1,209.7,51,251,58.4,293.1c9.8,55.9,37.9,100.7,85.8,131.6
	c49.9,32.1,104.7,39.8,162,26.3c59.4-14,103.2-48.8,130.4-103.6c19.8-39.9,24.7-82.3,17.9-126c-6.8-43.1-25.3-80.5-56.8-110.9
	C358.4,72.4,310.5,55.4,256.2,53.5z"/>
<path class="st0" d="M222.9,237.9c-1.4-0.3-2.7-0.7-3.9-1c-9.8-2.3-14.7-9.1-14-19.4c0.6-9.6,6.9-16.3,16.7-16.5
	c18.3-0.4,36.6-0.1,55.4-0.1c0,48.6,0,97,0,145.9c3.5,0,6.4-0.1,9.3,0c11.3,0.3,18.7,7.6,18.7,18.5c0,10.8-7.5,18.4-18.7,18.5
	c-24.2,0.1-48.3,0.2-72.5,0c-11.3-0.1-18.6-7.6-18.6-18.5c0-10.9,7.4-18.1,18.8-18.4c2.8-0.1,5.6,0,8.8,0
	C222.9,310.6,222.9,274.5,222.9,237.9z"/>
<path class="st0" d="M250.3,109.7c15.2,0,27.3,12.1,27.3,27.2c0,15.2-12,27.4-27.1,27.5c-15.2,0.2-27.6-12.3-27.5-27.6
	C223,121.6,235,109.7,250.3,109.7z"/>
</svg>
