<svg id="Layer_1" data-name="Layer 1" xmlns="http://www.w3.org/2000/svg" viewBox="0 0 10.3599 10.3601"><defs><style>.cls-1{fill:#272727;}.cls-2{fill:#fff;}</style></defs><title>search</title><path class="cls-1" d="M9.2548,10.36a5.486,5.486,0,0,1-.6821-.4789C8.0056,9.3438,7.46,8.7831,6.9068,8.2317c.2423-.2075.4861-.3927.701-.6068s.4034-.4592.6158-.7051c.0437.04.0989.0862.15.1369.5049.5032,1.0192.9976,1.5085,1.5156a5.4655,5.4655,0,0,1,.478.6827v.3223a1.0414,1.0414,0,0,1-.7828.7828Z"/><path class="cls-2" d="M9.5771,10.36a1.0414,1.0414,0,0,0,.7828-.7828V10.36Z"/><path class="cls-1" d="M4.3058,8.6113a4.3057,4.3057,0,1,1,4.3054-4.298A4.3088,4.3088,0,0,1,4.3058,8.6113ZM7.5,4.3142A3.1942,3.1942,0,1,0,4.3046,7.5,3.1986,3.1986,0,0,0,7.5,4.3142Z"/><path class="cls-1" d="M4.7217,6.7553a4.3858,4.3858,0,0,1-.6888-.0833A2.5683,2.5683,0,0,1,2.0576,4.8231,1.73,1.73,0,0,1,2.0182,4.17a.2707.2707,0,0,1,.4839-.1787,1.2679,1.2679,0,0,1,.3853.5525,2.9388,2.9388,0,0,0,1.4753,1.822c.1384.0819.2655.183.3979.2752Z"/></svg>