<?xml version="1.0" encoding="utf-8"?>
<!-- Generator: Adobe Illustrator 23.0.2, SVG Export Plug-In . SVG Version: 6.00 Build 0)  -->
<svg version="1.1" id="Layer_1" xmlns="http://www.w3.org/2000/svg" xmlns:xlink="http://www.w3.org/1999/xlink" x="0px" y="0px"
	 viewBox="0 0 523.8 521.9" style="enable-background:new 0 0 523.8 521.9;" xml:space="preserve">
<style type="text/css">
	.st0{fill:none;stroke:#EF4343;stroke-width:48;stroke-miterlimit:10;}
	.st1{fill:#EF4343;}
</style>
<path class="st0" d="M261.5,497.9C131.2,498.2,24.3,391.6,24,260.9C23.7,131.1,130.6,24.6,261.6,24c129.6-0.6,238,106,238.2,234.2
	C500,391.4,394.3,497.7,261.5,497.9z"/>
<path class="st1" d="M397.7,168.9l-231,223.3c-11.2,10.8-29.4,10.8-40.6,0l0,0c-11.2-10.8-11.2-28.4,0-39.2l231-223.3
	c11.2-10.8,29.4-10.8,40.6,0l0,0C408.8,140.5,408.8,158.1,397.7,168.9z"/>
<path class="st1" d="M397.8,352.9l-231.2-223c-11.2-10.8-29.4-10.7-40.6,0l0,0c-11.1,10.8-11.1,28.4,0,39.2l231.2,223
	c11.2,10.8,29.4,10.7,40.6,0l0,0C409,381.3,408.9,363.6,397.8,352.9z"/>
</svg>
