
<svg version="1.1" id="Layer_1" xmlns="http://www.w3.org/2000/svg" xmlns:xlink="http://www.w3.org/1999/xlink" x="0px" y="0px"
	 viewBox="0 0 39.6 39.6" style="enable-background:new 0 0 39.6 39.6;" xml:space="preserve">
<path d="M17.7,0c1.1,0.2,2.3,0.4,3.4,0.7c7.6,2.2,12.6,9.8,11.6,17.7c-1,7.4-6.4,13.1-13.7,14.3c-9.3,1.5-18-5.1-19-14.5
	C-0.8,9.9,4.4,2.5,12.6,0.5c0.8-0.2,1.7-0.3,2.5-0.5C16,0,16.8,0,17.7,0z M28.6,16.5c0-6.8-5.5-12.3-12.2-12.3
	C9.7,4.2,4.2,9.7,4.2,16.4c0,6.7,5.5,12.3,12.2,12.3C23.1,28.7,28.6,23.2,28.6,16.5z"/>
<path d="M39.6,36.6c-0.4,1.4-1.2,2.5-2.8,2.9c-1.2,0.3-2.3,0-3.2-0.8c-2.4-2.4-4.8-4.8-7.1-7.1c1.7-1.7,3.4-3.3,5-5
	c2.3,2.3,4.8,4.7,7.1,7.2c0.4,0.4,0.6,1.1,0.9,1.7C39.6,35.8,39.6,36.2,39.6,36.6z"/>
<path d="M18,25.7c-0.6,0-1.2,0-1.7,0c-3.9-0.4-7.6-3.5-8.5-7.3c-0.2-0.8-0.2-1.7-0.1-2.6c0.1-1,1-1.3,1.7-0.7
	c0.6,0.6,1.3,1.4,1.5,2.2c0.8,3.2,2.9,5.4,5.7,7c0.5,0.3,1,0.7,1.5,1C18.1,25.5,18.1,25.6,18,25.7z"/>
</svg>
